<svg width="60" height="60" viewBox="0 0 60 60" fill="none" xmlns="http://www.w3.org/2000/svg">
<rect width="60" height="60" rx="9" fill="black" fill-opacity="0.2"/>
<path d="M15.8571 14.8571C15.8571 13.3037 16.4742 11.8139 17.5727 10.7155C18.6711 9.61709 20.1609 9 21.7143 9C23.2677 9 24.7575 9.61709 25.8559 10.7155C26.9543 11.8139 27.5714 13.3037 27.5714 14.8571C27.5714 16.4106 26.9543 17.9003 25.8559 18.9988C24.7575 20.0972 23.2677 20.7143 21.7143 20.7143C20.1609 20.7143 18.6711 20.0972 17.5727 18.9988C16.4742 17.9003 15.8571 16.4106 15.8571 14.8571ZM35.7099 19.496L35.8329 19.5897C37.0755 20.5108 38.6319 20.9029 40.1626 20.6806C41.6933 20.4583 43.0738 19.6396 44.0031 18.4032C44.9323 17.1667 45.3348 15.6129 45.1226 14.0808C44.9104 12.5487 44.1008 11.1627 42.8705 10.2253C41.6402 9.28797 40.089 8.87529 38.5556 9.07736C37.0221 9.27944 35.6309 10.0799 34.6854 11.304C33.7399 12.528 33.317 14.0764 33.5089 15.6112C33.7009 17.1459 34.4921 18.5425 35.7099 19.496ZM25.4277 23.6429C25.7955 22.9463 26.3001 22.3312 26.9112 21.8341C27.5222 21.3371 28.2273 20.9685 28.9841 20.7502C29.741 20.532 30.5341 20.4686 31.316 20.564C32.0978 20.6593 32.8525 20.9114 33.5347 21.3051C34.2169 21.6988 34.8127 22.2261 35.2864 22.8554C35.7602 23.4847 36.1021 24.2031 36.2918 24.9676C36.4815 25.7321 36.515 26.527 36.3903 27.3048C36.2657 28.0826 35.9855 28.8272 35.5664 29.4941C34.7602 30.7772 33.4882 31.6979 32.0174 32.0628C30.5467 32.4277 28.9917 32.2084 27.6793 31.451C26.3668 30.6935 25.399 29.4569 24.9792 28.0009C24.5593 26.5449 24.7201 24.9828 25.4277 23.6429ZM14.3929 23.6429H22.2121C21.6917 25.1293 21.5785 26.7279 21.8844 28.2728C22.1903 29.8177 22.9041 31.2526 23.9517 32.4286H23.1786C21.6687 32.4284 20.1957 32.8948 18.9611 33.764C17.7265 34.6331 16.7907 35.8626 16.2818 37.2841C15.2988 36.8893 14.3784 36.3536 13.5494 35.6939C11.3471 33.9221 10 31.304 10 28.0357C10 26.8707 10.4628 25.7533 11.2866 24.9295C12.1105 24.1057 13.2278 23.6429 14.3929 23.6429ZM37.8214 32.4286C39.3309 32.4285 40.8035 32.8951 42.0376 33.7643C43.2716 34.6335 44.2069 35.8629 44.7153 37.2841C45.711 36.8771 46.6335 36.347 47.4506 35.6939C49.6529 33.9221 51 31.304 51 28.0357C51 26.8707 50.5372 25.7533 49.7134 24.9295C48.8895 24.1057 47.7722 23.6429 46.6071 23.6429H38.7879C39.11 24.5595 39.2857 25.5464 39.2857 26.5714C39.2884 28.7331 38.4915 30.8193 37.0483 32.4286H37.8214ZM41.8834 38.0749C42.0971 38.5903 42.2143 39.1584 42.2143 39.75C42.2143 43.0183 40.8701 45.6364 38.6649 47.4082C36.4948 49.1507 33.5838 50 30.5 50C27.4162 50 24.5052 49.1507 22.3351 47.4082C20.1329 45.6364 18.7857 43.0183 18.7857 39.75C18.7842 39.1727 18.8967 38.6008 19.117 38.0671C19.3372 37.5334 19.6607 37.0486 20.0689 36.6403C20.4771 36.2321 20.962 35.9086 21.4957 35.6884C22.0293 35.4682 22.6013 35.3556 23.1786 35.3571H37.8214C38.6915 35.3569 39.5421 35.6151 40.2652 36.099C40.9884 36.5828 41.5516 37.2705 41.8834 38.0749Z" fill="#999999"/>
</svg>
