<svg width="27" height="29" viewBox="0 0 27 29" fill="none" xmlns="http://www.w3.org/2000/svg">
<path d="M17.2381 16.7731H16.3703L16.0627 16.4572C17.1764 15.0815 17.7885 13.3252 17.7873 11.5088C17.7873 10.0049 17.3686 8.5347 16.584 7.28423C15.7994 6.03376 14.6842 5.05914 13.3795 4.48361C12.0748 3.90808 10.6391 3.7575 9.25398 4.0509C7.86889 4.3443 6.59661 5.06851 5.59801 6.13195C4.59942 7.19539 3.91937 8.55029 3.64386 10.0253C3.36834 11.5004 3.50975 13.0293 4.05018 14.4187C4.59062 15.8082 5.50581 16.9957 6.68004 17.8313C7.85426 18.6668 9.23477 19.1128 10.647 19.1128C12.4156 19.1128 14.0414 18.4226 15.2937 17.2761L15.5903 17.6037V18.5279L21.0829 24.3654L22.7197 22.6223L17.2381 16.7731ZM10.647 16.7731C7.9117 16.7731 5.70368 14.4217 5.70368 11.5088C5.70368 8.59587 7.9117 6.24448 10.647 6.24448C13.3823 6.24448 15.5903 8.59587 15.5903 11.5088C15.5903 14.4217 13.3823 16.7731 10.647 16.7731Z" fill="#71328D"/>
</svg>
