<svg width="44" height="44" viewBox="0 0 44 44" fill="none" xmlns="http://www.w3.org/2000/svg">
<path d="M21.9998 29.3334L24.5665 26.7667L21.6332 23.8334H29.3332V20.1667H21.6332L24.5665 17.2334L21.9998 14.6667L14.6665 22L21.9998 29.3334ZM21.9998 40.3334C19.4637 40.3334 17.0804 39.8518 14.8498 38.8887C12.6193 37.9256 10.679 36.6196 9.029 34.9709C7.379 33.3209 6.07306 31.3806 5.11117 29.15C4.14928 26.9195 3.66773 24.5361 3.6665 22C3.6665 19.4639 4.14806 17.0806 5.11117 14.85C6.07428 12.6195 7.38023 10.6792 9.029 9.02919C10.679 7.37919 12.6193 6.07324 14.8498 5.11135C17.0804 4.14946 19.4637 3.66791 21.9998 3.66669C24.5359 3.66669 26.9193 4.14824 29.1498 5.11135C31.3804 6.07447 33.3207 7.38041 34.9707 9.02919C36.6207 10.6792 37.9272 12.6195 38.8903 14.85C39.8534 17.0806 40.3344 19.4639 40.3332 22C40.3332 24.5361 39.8516 26.9195 38.8885 29.15C37.9254 31.3806 36.6194 33.3209 34.9707 34.9709C33.3207 36.6209 31.3804 37.9274 29.1498 38.8905C26.9193 39.8536 24.5359 40.3346 21.9998 40.3334ZM21.9998 36.6667C26.0943 36.6667 29.5623 35.2459 32.404 32.4042C35.2457 29.5625 36.6665 26.0945 36.6665 22C36.6665 17.9056 35.2457 14.4375 32.404 11.5959C29.5623 8.75419 26.0943 7.33335 21.9998 7.33335C17.9054 7.33335 14.4373 8.75419 11.5957 11.5959C8.754 14.4375 7.33317 17.9056 7.33317 22C7.33317 26.0945 8.754 29.5625 11.5957 32.4042C14.4373 35.2459 17.9054 36.6667 21.9998 36.6667Z" fill="white"/>
</svg>
