<svg width="32" height="32" viewBox="0 0 100 100" fill="none" xmlns="http://www.w3.org/2000/svg">
<path d="M50 0C27.923 0 10 17.923 10 40C10 61.304 26.69 78.732 47.697 79.928V85H40C39.337 85 38.7011 85.2634 38.2322 85.7322C37.7634 86.2011 37.5 86.837 37.5 87.5V90H0V95H37.5V97.5C37.5 98.163 37.7634 98.7989 38.2322 99.2678C38.7011 99.7366 39.337 100 40 100H60C60.663 100 61.2989 99.7366 61.7678 99.2678C62.2366 98.7989 62.5 98.163 62.5 97.5V95H100V90H62.5V87.5C62.5 86.837 62.2366 86.2011 61.7678 85.7322C61.2989 85.2634 60.663 85 60 85H52.697V79.898C73.477 78.51 89.932 61.234 89.994 40.119C89.998 40.0795 90 40.0397 90 40C90.0002 39.965 89.9989 39.9299 89.996 39.895C89.938 17.867 72.041 0 50 0ZM49.744 2.406C50.49 2.475 51.234 2.566 51.971 2.709C52.024 4.472 52.418 7.767 48.973 7.65C46.137 7.81 43.446 14.25 41.852 9.602C42.038 7.217 46.14 2.413 41.184 4.16C40.128 5.684 40.404 8.514 38.449 8.18C37.754 10.689 35.799 9.193 35.41 8.105C34.47 8.656 36.107 10.068 35.055 10.82C38.096 8.775 35.305 13.379 37.043 14.562C35.383 16.158 38.353 20.237 34.85 19.205C31.622 18.691 37.36 15.129 33.406 16.828C30.921 17.386 31.056 18.804 32.914 19.178C31.245 20.744 29.119 20.83 28.129 20.125C25.594 21.742 23.175 23.742 21.089 26.09C18.025 26.234 18.715 32.445 17.24 31.813C17.079 29.909 17.73 26.837 15.773 27.281C15.281 27.119 14.831 27.335 14.441 27.768C19.487 13.08 33.361 2.516 49.744 2.406ZM55.164 2.762C55.68 2.832 56.192 2.914 56.701 3.006C57.38 3.266 57.821 3.619 56.795 3.746L55.977 3.466C55.287 3.071 55.09 2.856 55.164 2.762ZM63.932 5.074C77.804 10.606 87.6 24.144 87.6 40C87.6 50.468 83.327 59.928 76.434 66.742C77.221 64.596 77.636 62.206 79.105 60.408C80.043 57.172 76.728 54.86 78.629 51.868C76.979 52.065 74.061 50.098 72.236 52.781C70.151 52.809 68.131 55.199 66.193 53.951C63.619 52.423 60.665 50.636 59.936 47.514C60.249 45.08 59.501 41.96 59.732 39.704C60.884 35.798 63.987 33.451 64.629 29.592C64.894 29.359 67.143 27.604 67.236 27.532C69.974 26.823 73.697 22.429 75.332 26.834C75.89 27.238 79.617 29.117 79.282 27.634C79.372 25.319 85.549 26.574 82.377 23.544C82.048 23.351 80.797 22.988 79.969 23.219C79.628 23.299 78.162 24.923 76.91 22.742C74.984 20.948 76.806 27.551 74.22 24.137C76.88 23.253 70.843 20.164 72.266 21.961C74.352 25.506 70.463 23.178 71.168 20.734C67.802 20.322 69.436 26.642 66.278 27.614C66.298 27.617 66.321 27.611 66.342 27.614L65.793 27.686L64.941 27.764C64.163 26.97 61.894 26.871 62.566 24.574C61.134 22.094 62.554 21.147 65.088 21.381C67.644 19.744 59.771 17.786 64.828 16.931C62.614 17.074 61.69 17.157 61.402 14.426C61.756 17.813 57.378 15.699 59.725 13.684C60.619 13.083 57.669 11.858 60.148 11.439C61.807 11.351 65.077 18.072 65.676 14.041C66.803 13.679 64.623 11.523 65.145 11.408C62.209 12.343 61.351 7.191 61.328 5.262C62.301 5.3 63.285 5.22 63.932 5.074ZM36.703 6.373C36.492 6.399 36.098 6.586 35.477 7.031C34.699 7.365 33.145 9.421 34.969 7.901C36.337 7.673 37.337 6.296 36.703 6.373ZM64.68 7.379C64.3 7.409 65.538 8.406 64.951 7.434C64.8648 7.39931 64.7729 7.38067 64.68 7.379ZM32.477 7.838C32.153 7.814 31.675 7.958 31.007 8.35C28.827 8.535 28.712 13.331 28.775 13.043C29.421 12.613 29.991 11.296 30.826 11.373C32.385 11.212 33.881 7.94 32.477 7.838ZM52.668 7.926C54.241 7.86 56.708 9.113 53.293 9.537C52.739 9.534 52.131 9.437 51.713 9.035C51.421 8.258 51.953 7.956 52.668 7.926ZM64.768 8.551C64.112 8.491 67.265 10.711 65.934 9.031C65.274 8.699 64.919 8.565 64.768 8.551ZM58.189 9.783C58.378 9.701 58.724 10.762 58.098 10.059C58.11 9.882 58.146 9.802 58.189 9.783ZM60.607 10.363C60.76 10.405 61.327 11.578 60.654 10.813C60.552 10.461 60.557 10.349 60.607 10.363ZM67.457 10.371C67.127 10.372 67.151 10.719 68.147 11.6C68.437 12.931 67.75 13.573 69.237 12.371C69.547 11.326 68.007 10.369 67.457 10.371ZM24.097 15.231C23.627 15.175 24.043 17.326 24.574 15.695C24.362 15.375 24.206 15.243 24.098 15.23L24.097 15.231ZM31.525 16.176C31.229 16.172 31.505 16.872 32.023 16.48C31.785 16.257 31.624 16.177 31.525 16.176ZM77.037 16.465C76.426 16.535 78.387 20.64 78.855 18.77C81.341 18.387 78.477 16.271 77.922 17.184C77.457 16.647 77.178 16.449 77.037 16.465ZM24.154 17.215C23.79 17.296 23.57 19.529 24.316 17.332C24.261 17.237 24.206 17.203 24.154 17.215ZM72.543 19.473C72.418 19.51 72.706 19.833 73.75 20.611C74.124 20.5 75.968 22.219 75.537 21.254C74.833 20.554 73.069 19.549 72.621 19.474C72.5954 19.4683 72.5688 19.4679 72.543 19.473ZM23.234 19.493C22.839 19.413 22.068 20.759 23.418 19.82C23.398 19.605 23.326 19.511 23.234 19.493ZM77.936 21.279C77.728 21.368 78.686 22.724 78.613 21.746C78.204 21.361 78.005 21.25 77.936 21.279ZM69.716 23.131C70.214 23.053 69.916 25.343 68.949 24.213C69.296 23.447 69.55 23.157 69.716 23.131ZM79.906 23.937C80.448 23.867 80.916 25.405 79.41 24.687C79.537 24.164 79.726 23.961 79.906 23.937ZM50.676 26.16C51.261 26.212 51.152 27.16 49.877 26.5C50.208 26.226 50.481 26.143 50.676 26.16ZM52.439 26.762C52.678 26.852 52.209 27.709 51.932 27.014C52.201 26.787 52.36 26.732 52.439 26.762ZM58.791 30.824C59.123 30.744 58.974 31.936 58.482 31.123C58.612 30.929 58.714 30.843 58.791 30.824ZM18.658 31.168C18.878 31.166 19.364 32.8 18.584 31.871C18.54 31.351 18.585 31.169 18.658 31.168ZM18.223 32.488C18.443 32.525 18.335 34.618 17.895 33.338C18.04 32.692 18.149 32.476 18.223 32.488ZM14.363 33.131C14.815 33.381 13.547 36.692 14.027 37.5C15.573 39.853 13.012 44.055 16.672 44.865C17.968 42.354 19.173 44.634 19.461 44.33C20.653 44.12 21.501 47.063 23.641 46.666C26.119 46.406 24.893 51.277 28.273 51.816C32.401 53.012 31.973 58.544 36.52 59.23C39.207 60.804 46.738 61.493 44.379 65.816C40.858 67.268 43.117 73.683 37.932 72.43C36.79 72.759 36.295 73.91 35.445 74.682C30.754 72.7077 26.5125 69.8021 22.977 66.141C20.947 63.024 18.049 60.518 16.729 56.939C13.952 53.39 16.207 49.578 15.652 45.877C15.489 43.917 15.008 47.047 14.354 44.561C13.364 42.532 13.021 39.852 12.488 37.545C12.5785 36.1481 12.7468 34.7572 12.992 33.379C13.035 33.673 13.105 33.924 13.209 34.107C13.87 33.305 14.213 33.047 14.363 33.131ZM15.988 33.162C16.21 33.185 16.522 33.268 16.945 33.422C17.737 35.641 19.891 36.362 19.281 37.34C20.835 37.96 23.098 40.906 19.436 39.588C17.004 38.608 20.282 37.728 17.406 36.953C17.294 35.744 14.435 33.001 15.988 33.162ZM61.352 33.775C61.715 33.775 62.002 35.245 60.928 34.986C61.004 34.079 61.186 33.775 61.352 33.775ZM19.012 34.428C19.172 34.468 19.425 34.908 19.275 35.439L19.094 35.319C18.861 34.75 18.865 34.489 18.949 34.436C18.9584 34.4303 18.9688 34.4267 18.9796 34.4253C18.9905 34.4239 19.0015 34.4248 19.012 34.428ZM58.615 34.496C59.649 34.436 61.489 35.278 59.115 35.357H58.316L58.176 35.293C57.841 34.736 58.145 34.523 58.615 34.496ZM16.785 37.41C17.249 37.507 18.588 38.996 17.049 38.46C16.545 37.61 16.575 37.366 16.785 37.41ZM22.061 39.666C22.637 39.594 23.415 41.145 21.652 40.424C21.699 39.894 21.868 39.69 22.061 39.666ZM24.869 42.582C25.103 42.674 25.314 46.2 24.689 44.533L24.659 43.953C24.711 42.901 24.791 42.551 24.869 42.582ZM52.929 44.93C53.369 44.977 54.759 45.883 53.281 45.59C52.728 45.064 52.73 44.908 52.929 44.93ZM55.079 45.422C55.476 45.416 55.328 46.625 54.715 45.662C54.865 45.489 54.987 45.423 55.079 45.422ZM54.723 46.475C55.333 46.375 54.85 47.586 54.115 46.793C54.382 46.59 54.582 46.497 54.723 46.475ZM53.689 46.629C53.914 46.653 53.786 47.743 53.346 47.066C53.501 46.733 53.614 46.621 53.689 46.629ZM77.066 54.08C77.291 54.104 77.163 55.193 76.723 54.516C76.878 54.182 76.991 54.072 77.066 54.08ZM42.5 90H57.5V95H42.5V90Z" fill="#9E54FF"/>
</svg>
