<svg width="40" height="40" viewBox="0 0 40 40" fill="none" xmlns="http://www.w3.org/2000/svg">
<circle cx="20" cy="20" r="20" fill="#71328D"/>
<path d="M18.8736 31.9101V29.0113C17.6495 28.7416 16.5926 28.2247 15.7029 27.4607C14.8133 26.6967 14.161 25.618 13.7462 24.2247L16.3099 23.2135C16.6563 24.2922 17.1704 25.1124 17.8522 25.6742C18.534 26.236 19.4288 26.5169 20.5365 26.5169C21.4834 26.5169 22.2862 26.3088 22.9449 25.8926C23.6036 25.4764 23.9325 24.8306 23.9316 23.9551C23.9316 23.1686 23.6776 22.5452 23.1694 22.085C22.6613 21.6247 21.4834 21.102 19.6357 20.5169C17.6495 19.9101 16.2868 19.1852 15.5477 18.342C14.8086 17.4989 14.4391 16.471 14.4391 15.2584C14.4391 13.7978 14.9241 12.6629 15.8942 11.854C16.8642 11.045 17.8573 10.5843 18.8736 10.4719V7.64047H21.6451V10.4719C22.7999 10.6517 23.7528 11.062 24.5039 11.7029C25.255 12.3438 25.8033 13.1245 26.1488 14.045L23.5852 15.1236C23.308 14.4045 22.9154 13.8652 22.4073 13.5056C21.8991 13.1461 21.2063 12.9663 20.3286 12.9663C19.3124 12.9663 18.5387 13.1856 18.0075 13.6243C17.4762 14.0629 17.2106 14.6077 17.2106 15.2584C17.2106 16 17.5571 16.5843 18.25 17.0113C18.9428 17.4382 20.1438 17.8877 21.853 18.3596C23.4466 18.809 24.6536 19.5227 25.474 20.5007C26.2943 21.4787 26.7041 22.6077 26.7031 23.8877C26.7031 25.4832 26.2181 26.6967 25.2481 27.5281C24.2781 28.3596 23.0771 28.8764 21.6451 29.0787V31.9101H18.8736Z" fill="#D9D9D9"/>
</svg>
