<svg width="32" height="32" viewBox="0 0 20 22" fill="none" xmlns="http://www.w3.org/2000/svg">
<path d="M1 0H17C17.2652 0 17.5196 0.105357 17.7071 0.292893C17.8946 0.48043 18 0.734784 18 1V5C18 5.26522 17.8946 5.51957 17.7071 5.70711C17.5196 5.89464 17.2652 6 17 6H1C0.734784 6 0.48043 5.89464 0.292893 5.70711C0.105357 5.51957 0 5.26522 0 5V1C0 0.734784 0.105357 0.48043 0.292893 0.292893C0.48043 0.105357 0.734784 0 1 0ZM1 8H17C17.2652 8 17.5196 8.10536 17.7071 8.29289C17.8946 8.48043 18 8.73478 18 9V9.67L15.5 8.56L9 11.44V14H1C0.734784 14 0.48043 13.8946 0.292893 13.7071C0.105357 13.5196 0 13.2652 0 13V9C0 8.73478 0.105357 8.48043 0.292893 8.29289C0.48043 8.10536 0.734784 8 1 8ZM1 16H9C9.06 18.25 10 20.4 11.46 22H1C0.734784 22 0.48043 21.8946 0.292893 21.7071C0.105357 21.5196 0 21.2652 0 21V17C0 16.7348 0.105357 16.4804 0.292893 16.2929C0.48043 16.1054 0.734784 16 1 16ZM6 4H7V2H6V4ZM6 12H7V10H6V12ZM6 20H7V18H6V20ZM2 2V4H4V2H2ZM2 10V12H4V10H2ZM2 18V20H4V18H2ZM15.5 11L20 13V16C20 18.78 18.08 21.37 15.5 22C12.92 21.37 11 18.78 11 16V13L15.5 11ZM15.5 12.94L13 14.06V16.72C13 18.26 14.07 19.7 15.5 20.06V12.94Z" fill="#9E54FF"/>
</svg>
