<svg width="60" height="60" viewBox="0 0 60 60" fill="none" xmlns="http://www.w3.org/2000/svg">
<rect width="60" height="60" rx="9" fill="black" fill-opacity="0.2"/>
<path d="M10.6072 28.0346L48.3272 11.5527M48.3272 11.5527L41.2752 9M48.3272 11.5527L45.7032 18.3282M50 50H41.8V27.94C41.8 27.5221 41.9728 27.1214 42.2803 26.8258C42.5879 26.5303 43.005 26.3643 43.44 26.3643H48.36C48.795 26.3643 49.2121 26.5303 49.5197 26.8258C49.8272 27.1214 50 27.5221 50 27.94V50ZM33.6 50H25.4V32.6672C25.4 32.2493 25.5728 31.8485 25.8803 31.553C26.1879 31.2575 26.605 31.0915 27.04 31.0915H31.96C32.395 31.0915 32.8121 31.2575 33.1197 31.553C33.4272 31.8485 33.6 32.2493 33.6 32.6672V50ZM17.2 50H9V37.3943C9 36.9764 9.17279 36.5756 9.48034 36.2801C9.7879 35.9846 10.205 35.8186 10.64 35.8186H15.56C15.995 35.8186 16.4121 35.9846 16.7197 36.2801C17.0272 36.5756 17.2 36.9764 17.2 37.3943V50Z" stroke="#999999" stroke-width="1.71429" stroke-linecap="round" stroke-linejoin="round"/>
</svg>
