<svg width="60" height="60" viewBox="0 0 60 60" fill="none" xmlns="http://www.w3.org/2000/svg">
<rect width="60" height="60" rx="9" fill="black" fill-opacity="0.2"/>
<path d="M9 20.25V15.125C9 13.7658 9.53995 12.4622 10.5011 11.5011C11.4622 10.54 12.7658 10 14.125 10H19.25M9 40.75V45.875C9 47.2342 9.53995 48.5378 10.5011 49.4989C11.4622 50.46 12.7658 51 14.125 51H19.25M39.75 10H44.875C46.2342 10 47.5378 10.54 48.4989 11.5011C49.46 12.4622 50 13.7658 50 15.125V20.25M39.75 51H44.875C46.2342 51 47.5378 50.46 48.4989 49.4989C49.46 48.5378 50 47.2342 50 45.875V40.75M29.5 30.5H29.4744M16.6875 30.5C25.2283 18.5408 33.7717 18.5408 42.3125 30.5C33.7717 42.4592 25.2283 42.4592 16.6875 30.5Z" stroke="#999999" stroke-width="2" stroke-linecap="round" stroke-linejoin="round"/>
</svg>
