<svg width="32" height="32" viewBox="0 0 32 32" fill="none" xmlns="http://www.w3.org/2000/svg">
<g clip-path="url(#clip0_93_16)">
<path d="M9.01592 13.38C9.01592 13.776 9.06292 14.094 9.13592 14.328C9.21892 14.562 9.32892 14.818 9.47492 15.094C9.52414 15.1664 9.55124 15.2515 9.55292 15.339C9.55292 15.448 9.48492 15.553 9.34992 15.662L8.67792 16.105C8.59821 16.1654 8.50188 16.2 8.40192 16.204C8.29292 16.204 8.18792 16.152 8.08392 16.053C7.9384 15.9003 7.80936 15.7327 7.69892 15.553C7.57916 15.3503 7.46969 15.1417 7.37092 14.928C6.53792 15.907 5.49592 16.397 4.24092 16.397C3.34492 16.397 2.63192 16.142 2.11092 15.631C1.58992 15.115 1.32492 14.438 1.32492 13.584C1.32492 12.683 1.64292 11.943 2.29392 11.391C2.94492 10.839 3.80392 10.563 4.90292 10.563C5.26192 10.563 5.63692 10.594 6.02792 10.646C6.42392 10.698 6.82992 10.787 7.25192 10.88V10.104C7.25192 9.29698 7.08492 8.72898 6.75192 8.40098C6.41292 8.07298 5.84092 7.91098 5.01792 7.91098C4.64792 7.91098 4.26292 7.95298 3.86692 8.04598C3.4769 8.14086 3.09397 8.26282 2.72092 8.41098C2.59592 8.46798 2.47092 8.50998 2.34592 8.55198C2.29149 8.56814 2.23552 8.57853 2.17892 8.58298C2.02792 8.58298 1.95492 8.47398 1.95492 8.24998V7.72898C1.95492 7.56198 1.97592 7.43198 2.02792 7.35898C2.10607 7.26008 2.20835 7.18295 2.32492 7.13498C2.75052 6.9224 3.20006 6.76159 3.66392 6.65598C4.20635 6.51607 4.76476 6.44783 5.32492 6.45298C6.59592 6.45298 7.51792 6.73898 8.11692 7.31798C8.69992 7.89098 8.99692 8.76098 8.99692 9.93298V13.381L9.01592 13.38ZM4.69792 15C5.04692 15 5.41192 14.937 5.79192 14.807C6.18264 14.6748 6.5312 14.4412 6.80192 14.13C6.97392 13.927 7.10392 13.703 7.16692 13.448C7.22992 13.193 7.27092 12.88 7.27092 12.521V12.073C6.94835 11.9936 6.62147 11.9328 6.29192 11.891C5.96027 11.8487 5.62625 11.8277 5.29192 11.828C4.57792 11.828 4.05792 11.969 3.70892 12.255C3.35492 12.541 3.18792 12.948 3.18792 13.479C3.18792 13.979 3.31292 14.349 3.57892 14.604C3.83392 14.87 4.20792 15 4.69792 15ZM13.2449 16.151C13.0519 16.151 12.9219 16.12 12.8389 16.042C12.7559 15.979 12.6779 15.828 12.6149 15.631L10.1149 7.40198C10.066 7.2641 10.0344 7.12066 10.0209 6.97498C10.0209 6.80298 10.1039 6.70898 10.2709 6.70898H11.3179C11.5209 6.70898 11.6569 6.73998 11.7289 6.81298C11.8179 6.87598 11.8799 7.02698 11.9429 7.22998L13.7349 14.277L15.3959 7.22998C15.4479 7.01598 15.5109 6.87598 15.5939 6.81298C15.722 6.73473 15.8712 6.69837 16.0209 6.70898H16.8699C17.0729 6.70898 17.2139 6.73998 17.2969 6.81298C17.3799 6.87598 17.4579 7.02698 17.4999 7.22998L19.1819 14.36L21.0209 7.22998C21.0889 7.01598 21.1619 6.87598 21.2349 6.81298C21.3593 6.73481 21.5054 6.69837 21.6519 6.70898H22.6419C22.8139 6.70898 22.9079 6.79198 22.9079 6.97498C22.9079 7.02698 22.8979 7.07898 22.8869 7.14698C22.8696 7.23743 22.8452 7.32637 22.8139 7.41298L20.2459 15.637C20.1829 15.851 20.1109 15.991 20.0219 16.054C19.9034 16.1319 19.7624 16.1685 19.6209 16.158H18.7039C18.5009 16.158 18.3649 16.127 18.2769 16.054C18.1939 15.981 18.1209 15.84 18.0789 15.627L16.4279 8.76198L14.7869 15.616C14.7349 15.83 14.6719 15.97 14.5839 16.043C14.5009 16.116 14.3499 16.147 14.1569 16.147L13.2449 16.151ZM26.9169 16.438C26.3649 16.438 25.8129 16.37 25.2819 16.245C24.7509 16.12 24.3339 15.979 24.0579 15.818C23.8859 15.724 23.7719 15.62 23.7299 15.521C23.6865 15.4279 23.6633 15.3267 23.6619 15.224V14.682C23.6619 14.458 23.7509 14.349 23.9069 14.349C23.9699 14.349 24.0369 14.359 24.0999 14.38C24.1629 14.406 24.2609 14.448 24.3659 14.489C24.7309 14.65 25.1209 14.775 25.5379 14.859C25.9649 14.948 26.3769 14.989 26.8039 14.989C27.4759 14.989 27.9969 14.869 28.3559 14.635C28.7099 14.421 28.9239 14.036 28.9129 13.625C28.917 13.3491 28.8146 13.0823 28.6269 12.88C28.4339 12.682 28.0699 12.5 27.5489 12.328L26.0069 11.849C25.2309 11.604 24.6529 11.245 24.3039 10.766C23.9602 10.3232 23.7718 9.77952 23.7679 9.21898C23.7679 8.77098 23.8669 8.37998 24.0599 8.03698C24.2529 7.69798 24.5079 7.40198 24.8259 7.16698C25.1563 6.91575 25.5307 6.72853 25.9299 6.61498C26.3569 6.48498 26.8049 6.43298 27.2739 6.43298C27.5079 6.43298 27.7529 6.44298 27.9879 6.47498C28.2329 6.50598 28.4569 6.54798 28.6809 6.59498C28.8889 6.64698 29.0919 6.69898 29.2849 6.76198C29.4779 6.82498 29.6289 6.89198 29.7329 6.95498C29.8576 7.01859 29.9663 7.10952 30.0509 7.22098C30.1219 7.32491 30.1567 7.44931 30.1499 7.57498V8.07498C30.1499 8.29898 30.0609 8.41398 29.9049 8.41398C29.7627 8.39942 29.6247 8.35695 29.4989 8.28898C28.8566 8.00347 28.1598 7.86117 27.4569 7.87198C26.8479 7.87198 26.3679 7.96598 26.0399 8.16898C25.7069 8.37198 25.5399 8.67898 25.5399 9.11698C25.5399 9.41398 25.6439 9.66898 25.8579 9.87198C26.0719 10.075 26.4669 10.278 27.0299 10.461L28.5399 10.935C29.3059 11.18 29.8629 11.524 30.1909 11.961C30.5189 12.393 30.6809 12.893 30.6809 13.451C30.6809 13.904 30.5819 14.321 30.4049 14.685C30.2131 15.0474 29.949 15.3667 29.6289 15.623C29.2959 15.889 28.9049 16.076 28.4469 16.217C27.9523 16.3676 27.4379 16.4431 26.9209 16.441L26.9169 16.438ZM28.9319 21.609C25.4269 24.198 20.3429 25.567 15.9679 25.567C9.83792 25.567 4.31192 23.301 0.13992 19.531C-0.18808 19.234 0.10892 18.828 0.50492 19.067C5.01492 21.682 10.5829 23.27 16.3379 23.27C20.2229 23.27 24.4889 22.457 28.4209 20.801C29.0039 20.53 29.5039 21.181 28.9309 21.608L28.9319 21.609ZM30.3909 19.948C29.9429 19.375 27.4269 19.672 26.2919 19.813C25.9529 19.855 25.8959 19.553 26.2089 19.329C28.2089 17.928 31.4949 18.329 31.8809 18.798C32.2609 19.282 31.7719 22.569 29.9019 24.142C29.6159 24.387 29.3339 24.262 29.4639 23.939C29.8909 22.887 30.8389 20.516 30.3909 19.948Z" fill="#9747FF"/>
</g>
<defs>
<clipPath id="clip0_93_16">
<rect width="32" height="32" fill="white"/>
</clipPath>
</defs>
</svg>
