<svg xmlns="http://www.w3.org/2000/svg" version="1.1" xmlns:xlink="http://www.w3.org/1999/xlink" xmlns:svgjs="http://svgjs.com/svgjs" width="1000" height="1000"><rect width="1000" height="1000" rx="450" ry="450" fill="#f4dddd"></rect><g transform="matrix(10.81081081081081,0,0,10.81081081081081,102.39677443294914,349.89952349501687)"><svg xmlns="http://www.w3.org/2000/svg" version="1.1" xmlns:xlink="http://www.w3.org/1999/xlink" xmlns:svgjs="http://svgjs.com/svgjs" width="74" height="28"><svg width="74" height="28" viewBox="0 0 74 28" fill="none" xmlns="http://www.w3.org/2000/svg">
<path d="M0.645 0.799999L19.23 1.465L18.95 4.335L0.4 3.705L0.645 0.799999ZM14.295 5.525L17.445 6.855L5.79 23.305L20.595 23.655L20.455 26.56L0.225 25.79L14.295 5.525ZM59.3564 15.01L70.7314 0.624999L73.2864 2.515L62.5764 15.92V26.735H59.3564V15.01ZM50.9214 0.799999L60.2664 11.335L57.9564 13.75L48.6114 2.76L50.9214 0.799999Z" fill="#71328D"></path>
<path d="M34.6152 15.78L25.5152 27.12L22.9252 25.51L42.5952 0.729998L45.1502 2.62L36.5052 13.4L46.4452 24.915L43.7852 26.98L34.6152 15.78ZM25.9702 0.905L33.4602 9.585L31.3952 12L23.6602 2.69L25.9702 0.905Z" fill="#9E54FF"></path>
</svg></svg></g></svg>